HIERARCHY
ROOT Hips
{
	OFFSET -21.947001 39.810204 44.525997
	CHANNELS 6 Xposition Yposition Zposition Zrotation Xrotation Yrotation
	JOINT Chest
	{
		OFFSET -0.201599 0.334099 6.453201
		CHANNELS 6 Xposition Yposition Zposition Zrotation Xrotation Yrotation
		JOINT Chest2
		{
			OFFSET 0.000000 0.000000 3.568001
			CHANNELS 6 Xposition Yposition Zposition Zrotation Xrotation Yrotation
			JOINT Neck
			{
				OFFSET 0.000000 0.000000 8.296402
				CHANNELS 6 Xposition Yposition Zposition Zrotation Xrotation Yrotation
				JOINT Head
				{
					OFFSET 0.000000 0.000000 2.173901
					CHANNELS 6 Xposition Yposition Zposition Zrotation Xrotation Yrotation
					End Site
					{
						OFFSET 0.000000 0.000000 7.891998
					}
				}
			}
			JOINT LeftCollar
			{
				OFFSET 1.927601 0.221401 6.049000
				CHANNELS 6 Xposition Yposition Zposition Zrotation Xrotation Yrotation
				JOINT LeftShoulder
				{
					OFFSET 4.959700 0.000000 0.000000
					CHANNELS 6 Xposition Yposition Zposition Zrotation Xrotation Yrotation
					JOINT LeftElbow
					{
						OFFSET 0.000000 0.000000 -8.654202
						CHANNELS 6 Xposition Yposition Zposition Zrotation Xrotation Yrotation
						JOINT LeftWrist
						{
							OFFSET 0.000000 0.000000 -13.864101
							CHANNELS 6 Xposition Yposition Zposition Zrotation Xrotation Yrotation
							End Site
							{
								OFFSET 0.000000 0.000000 -2.173901
							}
						}
					}
				}
			}
			JOINT RightCollar
			{
				OFFSET -3.155701 -0.764999 6.687801
				CHANNELS 6 Xposition Yposition Zposition Zrotation Xrotation Yrotation
				JOINT RightShoulder
				{
					OFFSET -3.592899 0.000000 0.000000
					CHANNELS 6 Xposition Yposition Zposition Zrotation Xrotation Yrotation
					JOINT RightElbow
					{
						OFFSET 0.000000 0.000000 -10.352398
						CHANNELS 6 Xposition Yposition Zposition Zrotation Xrotation Yrotation
						JOINT RightWrist
						{
							OFFSET 0.000000 0.000000 -12.750301
							CHANNELS 6 Xposition Yposition Zposition Zrotation Xrotation Yrotation
							End Site
							{
								OFFSET 0.000000 0.000000 -2.173901
							}
						}
					}
				}
			}
		}
	}
	JOINT LeftHip
	{
		OFFSET 2.460600 -0.518101 -2.735500
		CHANNELS 6 Xposition Yposition Zposition Zrotation Xrotation Yrotation
		JOINT LeftKnee
		{
			OFFSET 0.000000 -0.000004 -17.005899
			CHANNELS 6 Xposition Yposition Zposition Zrotation Xrotation Yrotation
			JOINT LeftAnkle
			{
				OFFSET 0.000000 0.000000 -19.194401
				CHANNELS 6 Xposition Yposition Zposition Zrotation Xrotation Yrotation
				End Site
				{
					OFFSET 0.000000 -8.134600 0.000000
				}
			}
		}
	}
	JOINT RightHip
	{
		OFFSET -3.115499 -0.679600 -2.320301
		CHANNELS 6 Xposition Yposition Zposition Zrotation Xrotation Yrotation
		JOINT RightKnee
		{
			OFFSET 0.000000 -0.000004 -17.680401
			CHANNELS 6 Xposition Yposition Zposition Zrotation Xrotation Yrotation
			JOINT RightAnkle
			{
				OFFSET 0.000000 0.000000 -16.993797
				CHANNELS 6 Xposition Yposition Zposition Zrotation Xrotation Yrotation
				End Site
				{
					OFFSET 0.000000 -8.842300 0.000000
				}
			}
		}
	}
}
MOTION
Frames: 6
Frame Time: 0.041667
-21.874395 27.118105 42.920498 2917.407879 10.514185 -8.877762 -0.201594 0.334096 6.453196 10.027231 6.097345 -22.123898 0.000004 0.000000 3.568000 -2.071040 -7.532151 -1.218285 0.000007 0.000002 8.296394 57.996427 -20.059000 13.677142 0.000000 -0.000004 2.173899 11.116281 -8.100973 12.797870 1.927602 0.221407 6.048997 -11.709078 -3.209867 -0.775803 4.959701 0.000002 0.000002 213.348895 177.296958 76.684153 -0.000011 -0.000000 -8.654199 22.711979 -1.094870 1.006036 -0.000001 -0.000001 -13.864100 3187.507655 -179.680830 180.582962 -3.155694 -0.764991 6.687799 31.605355 -4.071768 -3.093830 -3.592900 0.000000 0.000000 25.726824 66.459749 -15.576188 0.000007 -0.000008 -10.352396 -138.559376 -148.064103 -159.945040 -0.000001 -0.000005 -12.750291 -68.001268 -178.990448 -94.432570 2.460603 -0.518100 -2.735507 12.936847 -11.396681 16.198948 -0.000001 -0.000005 -17.005901 -209.165323 165.358893 -158.432590 -0.000004 0.000001 -19.194401 406.901498 11.235455 18.251563 -3.115492 -0.679596 -2.320307 -23.209121 -35.825138 11.754433 -0.000007 -0.000003 -17.680393 -46.606052 163.719552 -238.784397 -0.000001 -0.000001 -16.993797 300.690008 36.626131 -48.083985
-22.144503 27.270908 42.855591 2924.150642 10.434523 -9.425321 -0.201599 0.334104 6.453203 10.044537 6.433683 -21.658171 0.000004 0.000003 3.568001 -2.053704 -7.575580 -1.230142 0.000010 0.000006 8.296398 55.313085 -21.547281 15.213220 0.000001 -0.000004 2.173898 13.438443 -8.416068 11.612764 1.927606 0.221412 6.048999 -10.772567 -3.084469 -0.790839 4.959701 0.000002 0.000005 212.495559 177.493544 76.813202 0.000003 -0.000001 -8.654200 21.609105 -0.834024 0.918797 0.000001 -0.000004 -13.864093 3192.866676 -179.925378 179.660627 -3.155696 -0.764995 6.687799 31.279275 -4.669420 -3.060524 -3.592904 0.000007 0.000008 26.732867 66.926722 -16.495385 -0.000004 -0.000009 -10.352398 -138.341684 -147.772618 -159.809174 0.000006 -0.000005 -12.750299 -68.273505 -178.973209 -94.457370 2.460604 -0.518091 -2.735502 12.795723 -11.118820 17.406110 -0.000002 -0.000001 -17.005907 -211.157894 164.582451 -159.738181 -0.000003 0.000000 -19.194397 404.609888 12.337273 13.253337 -3.115496 -0.679585 -2.320302 -25.915087 -37.637156 8.979663 -0.000008 -0.000008 -17.680401 -39.841156 166.940943 -242.569087 0.000004 -0.000000 -16.993793 300.854260 37.292939 -51.072258
-22.434700 27.372208 42.797993 2930.891874 10.185752 -9.931434 -0.201604 0.334101 6.453200 10.044641 7.010908 -21.309908 0.000003 0.000007 3.567999 -2.088452 -7.625576 -1.252506 0.000005 0.000004 8.296403 53.768806 -22.423108 16.557543 -0.000006 0.000002 2.173899 15.135061 -8.627086 10.816100 1.927606 0.221403 6.049006 -10.464463 -3.549950 -0.831083 4.959702 -0.000002 0.000007 212.344584 177.796094 76.782931 -0.000005 0.000000 -8.654200 20.335392 -0.782719 0.824496 0.000004 0.000007 -13.864097 3198.251925 -180.054291 178.674306 -3.155699 -0.764996 6.687801 31.292908 -1.588475 -2.438273 -3.592905 0.000001 0.000007 24.829377 63.774596 -14.378815 -0.000001 0.000001 -10.352394 -138.162255 -147.528425 -159.756526 0.000012 -0.000005 -12.750292 -68.446016 -179.025870 -94.346127 2.460594 -0.518099 -2.735499 12.716510 -10.754478 18.432251 -0.000003 0.000001 -17.005903 -210.391724 162.914096 -161.356157 -0.000008 0.000007 -19.194403 399.160654 13.302030 8.743182 -3.115503 -0.679598 -2.320304 -29.284853 -39.216197 5.650857 -0.000006 -0.000006 -17.680399 -33.966770 169.647624 -245.407112 0.000003 -0.000004 -16.993793 298.932764 37.521432 -51.911825
-22.732903 27.417404 42.759693 2937.512021 9.926130 -10.391932 -0.201599 0.334094 6.453200 10.269825 7.685474 -21.107311 0.000007 -0.000000 3.567993 -2.223541 -7.721539 -1.283727 -0.000000 -0.000004 8.296402 53.140514 -22.600459 17.686138 -0.000004 -0.000001 2.173905 16.279758 -8.674460 9.981408 1.927600 0.221405 6.049002 -10.287162 -4.861036 -0.751046 4.959700 0.000005 0.000001 212.230889 177.757818 76.404682 0.000000 -0.000002 -8.654200 18.715775 -0.672045 0.831321 -0.000005 -0.000003 -13.864104 3203.339705 -179.882731 178.323576 -3.155701 -0.764999 6.687803 32.626902 -2.327148 -1.830233 -3.592900 0.000005 -0.000005 24.340878 64.066348 -15.514416 -0.000002 -0.000005 -10.352394 -137.975354 -147.109639 -159.583135 0.000009 -0.000006 -12.750299 -68.522391 -178.931791 -94.268700 2.460601 -0.518106 -2.735506 12.958814 -10.397700 19.314388 -0.000003 -0.000002 -17.005898 -212.424429 161.981338 -162.395206 0.000000 0.000003 -19.194401 395.936285 14.479011 5.683850 -3.115496 -0.679601 -2.320303 -32.384860 -40.456136 2.308301 -0.000007 0.000000 -17.680397 -28.938603 171.833093 -247.287764 0.000002 -0.000003 -16.993797 295.124442 36.938288 -53.226793
-23.017696 27.414810 42.742592 2944.009990 9.831413 -10.789692 -0.201594 0.334097 6.453209 10.529212 8.095833 -20.991567 -0.000003 0.000004 3.567998 -2.378017 -7.767384 -1.310744 0.000001 -0.000011 8.296405 54.424785 -21.587653 17.904456 0.000000 -0.000008 2.173907 15.910897 -8.433104 9.613250 1.927602 0.221400 6.049004 -10.020212 -6.897420 -0.510527 4.959705 0.000003 0.000004 212.332563 175.944812 75.655164 0.000003 -0.000004 -8.654208 18.444525 -0.549534 0.771333 0.000002 -0.000003 -13.864101 3208.375686 -179.805672 177.410352 -3.155699 -0.765004 6.687805 32.061256 -2.625085 -1.297608 -3.592907 0.000005 0.000008 25.483147 64.128988 -16.322498 -0.000005 -0.000006 -10.352402 -137.722855 -146.766777 -159.341811 -0.000004 -0.000006 -12.750293 -68.609120 -178.849132 -94.140873 2.460603 -0.518101 -2.735498 13.138447 -10.127728 20.021149 0.000001 -0.000001 -17.005898 -215.374197 161.510779 -163.081299 -0.000004 0.000011 -19.194397 393.541894 15.516508 3.764221 -3.115494 -0.679597 -2.320297 -35.880985 -41.551924 -1.370849 -0.000005 -0.000009 -17.680397 -24.288559 173.288224 -248.098917 -0.000001 -0.000000 -16.993797 290.037754 35.990545 -53.357721
-23.277504 27.369808 42.750496 2950.385562 10.268377 -11.120688 -0.201595 0.334102 6.453205 10.872941 7.817250 -20.937832 0.000003 0.000005 3.568003 -2.524761 -7.767333 -1.328235 0.000004 -0.000002 8.296398 56.554458 -19.821235 17.224622 -0.000007 -0.000007 2.173900 14.226830 -7.853436 9.888362 1.927600 0.221402 6.049004 -9.189582 -4.802554 0.004815 4.959700 0.000000 -0.000004 211.863848 177.616269 77.007603 0.000003 0.000001 -8.654201 18.168559 -0.456290 0.718355 -0.000003 -0.000002 -13.864092 3212.722746 -179.903877 176.227555 -3.155704 -0.765004 6.687799 30.788768 -1.130519 -1.076409 -3.592908 0.000008 -0.000007 25.324320 62.805481 -14.642959 -0.000010 -0.000010 -10.352399 -137.618668 -146.553566 -159.364651 0.000003 -0.000005 -12.750299 -68.671671 -178.898295 -93.978390 2.460601 -0.518100 -2.735502 13.357838 -10.393227 20.674363 -0.000003 0.000000 -17.005899 -218.523365 161.160335 -163.578810 -0.000008 -0.000002 -19.194403 391.426339 16.452768 2.370371 -3.115498 -0.679594 -2.320302 -39.270705 -42.703736 -5.127091 -0.000008 -0.000001 -17.680399 -20.567238 173.647929 -247.790165 0.000001 -0.000002 -16.993793 284.759657 34.525322 -53.535248
